<?xml version="1.0" encoding="UTF-8"?>
<svg id="Layer_2" xmlns="http://www.w3.org/2000/svg" viewBox="0 0 2639.42231 2816.05232">
  <defs>
    <style>
      .cls-1 {
        font-size: 631.29395px;
      }

      .cls-2 {
        fill: none;
        stroke: #000;
        stroke-linecap: round;
        stroke-miterlimit: 10;
        stroke-width: 39.8712px;
      }

      .cls-3 {
        letter-spacing: .19831em;
      }

      .cls-4 {
        letter-spacing: .14851em;
      }

      .cls-5 {
        font-family: OhnoSoftieVar-Bold, 'Ohno Softie Variable';
        font-variation-settings: 'wght' 700;
        font-weight: 700;
      }

      .cls-6 {
        font-size: 498.38995px;
      }

      .cls-7 {
        letter-spacing: .14051em;
      }

      .cls-8 {
        letter-spacing: 0em;
      }
    </style>
  </defs>
  <g id="Main">
    <text class="cls-5" transform="translate(327.27837 2209.31479)"><tspan class="cls-6"><tspan class="cls-7" x="0" y="0">N</tspan><tspan class="cls-4" x="367.5625" y="0">O</tspan><tspan class="cls-7" x="762.54199" y="0">ODL</tspan><tspan x="1803.94336" y="0">E</tspan></tspan><tspan class="cls-1"><tspan class="cls-3" x="0" y="468.4873">NOIS</tspan><tspan class="cls-8" x="1739.35254" y="468.4873">E</tspan></tspan></text>
    <path class="cls-2" d="M127.35641,1384.2307s-109.605,30.18887-107.38762,51.58592c2.21738,21.39706,238.35181,294.40744,276.84062,283.20989,38.48881-11.19755,81.79444-149.10264,81.79444-149.10264-130.3164-117.22094-586.31073-498.88168,135.96992-1138.19509,0,0,36.23359,7.02372,67.30405,16.84585"/>
    <path class="cls-2" d="M518.73215,514.53614s115.13767,445.83648,677.99276,679.47013"/>
    <path class="cls-2" d="M326.88731,731.82634s105.16987,432.54608,668.02496,666.17973"/>
    <path class="cls-2" d="M281.81324,832.11809s101.96452,392.97227,633.64754,612.64138"/>
    <path class="cls-2" d="M444.8473,1597.742s321.54432,228.38905,853.29074-414.2452l-23.00477-48.07865"/>
    <g>
      <path class="cls-2" d="M871.03322,343.2997c-29.79899-42.86275-77.73808-60.2512-123.24574-32.51602-69.61978,42.43062-229.07581,348.85718,10.07385,368.60254,240.26006,19.83704,138.95452-299.00093,113.17189-336.08652Z"/>
      <circle class="cls-2" cx="773.68308" cy="525.38282" r="76.70993"/>
    </g>
    <path class="cls-2" d="M941.98945,727.37718c9.77284,7.75094,78.50685,35.44078,126.08686,282.8568"/>
    <path class="cls-2" d="M1701.98592,548.88894s8.64594-36.01153,44.53698-41.83294c56.34281-9.13862,162.31253,130.76404,101.23325,361.74958-39.16438,148.10922,63.18827,140.31502,64.47257,304.30648.66254,84.59907-51.07042,155.04241-46.9375,271.6474,4.36723,123.21556,131.91122,192.40689,59.35565,495.2369"/>
    <path class="cls-2" d="M1467.87506,585.64815c5.6998-16.68369,16.91545-31.10456,36.87569-32.94322,85.1858-7.84699,65.20538,195.6153,159.76756,179.06692,31.10519-5.44341,35.42257-37.23051,35.3608-71.79859"/>
    <path class="cls-2" d="M1028.29107,655.06928c62.76065,12.44208,130.69319,89.5517,193.40245,246.57932,40.21015,103.09191,150.70183,96.31106,186.91391,22.4303,34.21571-69.8077,47.43541-149.53742,50.82871-227.58317"/>
    <path class="cls-2" d="M834.49317,770.02872s48.62861,32.18597,57.24542,154.05018"/>
    <line class="cls-2" x1="2471.85004" y1="19.9356" x2="1384.65652" y2="537.90883"/>
    <line class="cls-2" x1="1515.34102" y1="631.46227" x2="1401.51279" y2="648.61305"/>
    <line class="cls-2" x1="1777.52833" y1="595.64458" x2="1625.97199" y2="616.21614"/>
    <line class="cls-2" x1="2619.48671" y1="459.58005" x2="1896.05782" y2="575.20631"/>
    <polyline class="cls-2" points="2474.80849 558.99666 2474.80849 2785.22685 221.66169 2785.22685 221.66169 1777.84288"/>
    <polyline class="cls-2" points="2307.23823 180.79811 2474.80849 186.44132 2474.80849 413.22643"/>
    <path class="cls-2" d="M221.66169,626.50906V186.44132l164.24766-5.64321C929.75971,30.09259,1528.80931,12.87181,2079.89839,122.49057"/>
  </g>
</svg>