<?xml version="1.0" encoding="UTF-8"?>
<svg id="Main" xmlns="http://www.w3.org/2000/svg" viewBox="0 0 2639.42231 2816.05232">
  <defs>
    <style>
      .cls-1 {
        stroke: #000;
        stroke-linecap: round;
        stroke-miterlimit: 10;
        stroke-width: 39.8712px;
      }

      .cls-1, .cls-2 {
        fill: none;
      }
    </style>
  </defs>
  <g>
    <rect class="cls-2" x="327.27795" y="1883.86564" width="2046.15591" height="828.59983"/>
    <path d="M391.07186,2212.30525c-10.30273,0-18.77539-2.91211-25.41797-8.72168-6.65039-5.80957-11.63379-14.70215-14.95117-26.66406-3.9873-13.62012-6.56543-31.06348-7.72559-52.33105-1.16797-21.25879-1.74414-46.67676-1.74414-76.25293,0-27.24023.74707-51.33496,2.24219-72.2666,1.49512-20.93262,4.40039-38.04199,8.72266-51.33496,4.9834-13.28516,12.87207-22.92578,23.67285-28.90625,10.79395-5.98047,24.99805-8.9707,42.6123-8.9707,8.97168,0,17.3584,1.08203,25.16895,3.23926,7.80273,2.16504,15.0293,6.72852,21.67969,13.70605,6.64258,6.97754,12.78711,16.86719,18.44043,29.6543,5.64648,12.79395,11.12891,29.8252,16.44727,51.08496,3.9873,16.2832,7.22656,29.24121,9.71875,38.87402,2.49219,9.64062,4.56348,16.86719,6.22949,21.67969,1.65918,4.82031,3.1543,7.97461,4.48535,9.46973,1.32422,1.49512,2.65625,2.24219,3.9873,2.24219,2.32031,0,3.90137-.99609,4.73438-2.99023.82617-1.99316,1.24609-4.64844,1.24609-7.97363,0-7.63965-.08496-15.11523-.24902-22.42773-.1709-7.30469-.33496-15.0293-.49805-23.1748-.17188-8.1377-.33496-16.94531-.49902-26.41504-.1709-9.46973-.24902-20.01367-.24902-31.64746,0-19.2666,3.48926-33.2207,10.4668-41.86523,6.97754-8.63574,15.4502-12.95801,25.41797-12.95801,8.9707,0,16.69531,2.0791,23.1748,6.22949,6.47852,4.15918,11.37695,12.5459,14.70215,25.16895,2.65625,12.2959,4.73535,28.74316,6.23047,49.34082,1.49512,20.60547,2.24219,47.34668,2.24219,80.24121,0,29.57617-.83301,55.40625-2.49219,77.49902-1.66602,22.10059-4.48535,39.29492-8.47168,51.58398-3.9873,12.63086-10.96484,21.67969-20.93262,27.16211s-22.92578,8.22266-38.875,8.22266c-8.30859,0-15.94824-1.08203-22.92578-3.23926s-13.29297-5.98047-18.93848-11.46289c-5.65332-5.48242-11.05078-12.87207-16.19824-22.17871-5.15527-9.29785-10.05273-20.93164-14.70215-34.88672-4.65723-13.95508-9.46973-30.72852-14.45312-50.33789-3.3252-13.28516-5.98047-24.08594-7.97461-32.39453-1.99316-8.30176-3.66016-14.53125-4.9834-18.69043-1.33203-4.15039-2.49219-6.97754-3.48926-8.47266-.99609-1.49512-2.32812-2.24219-3.9873-2.24219-1.66602,0-3.0752.91895-4.23633,2.74121-1.16797,1.83008-1.74414,5.23242-1.74414,10.2168,0,9.64062.16406,20.76855.49902,33.39258.32715,12.63086.57617,25.66699.74707,39.12305.16406,13.45703.24902,26.99902.24902,40.61914,0,20.27051-3.23926,34.88672-9.71875,43.8584-6.47852,8.9707-15.69922,13.45605-27.66016,13.45605Z"/>
    <path d="M854.32479,2214.29939c-28.24414,0-53.99707-6.72852-77.25-20.18555-23.26074-13.45605-41.70117-32.72168-55.32129-57.8125-13.62793-25.08301-20.43359-54.90137-20.43359-89.46191,0-34.55176,6.80566-63.79395,20.43359-87.71582,13.62012-23.92285,31.97461-42.19238,55.07227-54.82324,23.08887-12.62305,48.91992-18.93848,77.49902-18.93848,28.57227,0,54.57422,6.22949,77.99805,18.68945,23.4248,12.45996,42.11426,30.65039,56.06934,54.57324s20.93262,53.16406,20.93262,87.7168c0,34.56055-6.97754,64.37793-20.93262,89.46094-13.95508,25.09082-32.64453,44.44238-56.06934,58.0625-23.42383,13.62793-49.42578,20.43457-77.99805,20.43457ZM854.82381,2108.64022c10.62988,0,19.93555-2.56934,27.90918-7.72461,7.97461-5.14746,14.11914-12.53809,18.44043-22.17871,4.31445-9.63281,6.47949-20.59766,6.47949-32.89355,0-12.95801-2.32812-23.92285-6.97754-32.89355-4.65723-8.97168-10.96484-15.77734-18.93848-20.43457-7.97461-4.64844-17.11719-6.97754-27.41211-6.97754-9.96777,0-18.77441,2.41406-26.41406,7.22656-7.64746,4.82031-13.70605,11.63477-18.19141,20.43457-4.48535,8.80762-6.72852,19.68652-6.72852,32.64453,0,12.2959,2.15723,23.1748,6.47949,32.64453,4.31445,9.46875,10.29492,16.86719,17.94141,22.17773,7.63965,5.31934,16.77441,7.97461,27.41211,7.97461Z"/>
    <path d="M1249.30428,2214.29939c-28.24414,0-53.99707-6.72852-77.25-20.18555-23.26074-13.45605-41.70117-32.72168-55.32129-57.8125-13.62793-25.08301-20.43359-54.90137-20.43359-89.46191,0-34.55176,6.80566-63.79395,20.43359-87.71582,13.62012-23.92285,31.97461-42.19238,55.07227-54.82324,23.08887-12.62305,48.91992-18.93848,77.49902-18.93848,28.57227,0,54.57422,6.22949,77.99805,18.68945,23.4248,12.45996,42.11426,30.65039,56.06934,54.57324s20.93262,53.16406,20.93262,87.7168c0,34.56055-6.97754,64.37793-20.93262,89.46094-13.95508,25.09082-32.64453,44.44238-56.06934,58.0625-23.42383,13.62793-49.42578,20.43457-77.99805,20.43457ZM1249.8033,2108.64022c10.62988,0,19.93555-2.56934,27.90918-7.72461,7.97461-5.14746,14.11914-12.53809,18.44043-22.17871,4.31445-9.63281,6.47949-20.59766,6.47949-32.89355,0-12.95801-2.32812-23.92285-6.97754-32.89355-4.65723-8.97168-10.96484-15.77734-18.93848-20.43457-7.97461-4.64844-17.11719-6.97754-27.41211-6.97754-9.96777,0-18.77441,2.41406-26.41406,7.22656-7.64746,4.82031-13.70605,11.63477-18.19141,20.43457-4.48535,8.80762-6.72852,19.68652-6.72852,32.64453,0,12.2959,2.15723,23.1748,6.47949,32.64453,4.31445,9.46875,10.29492,16.86719,17.94141,22.17773,7.63965,5.31934,16.77441,7.97461,27.41211,7.97461Z"/>
    <path d="M1594.94393,2214.29939c-18.61133,0-33.64062-.74805-45.10352-2.24316s-20.27051-4.23633-26.41504-8.22363c-6.15234-3.9873-11.0498-9.46973-14.70215-16.44629-4.65723-9.29883-8.14551-25.91699-10.4668-49.83984-2.32812-23.92188-3.48828-53.49121-3.48828-88.71289,0-22.59082.49805-43.02539,1.49512-61.30176.99707-18.26953,2.65527-33.71973,4.9834-46.35059,2.32129-12.62305,4.8125-22.09277,7.47656-28.4082,3.65234-6.97754,8.5498-12.37402,14.70215-16.19727,6.14453-3.81641,14.95215-6.64258,26.41504-8.47266,11.46289-1.82227,26.49219-2.74121,45.10352-2.74121,58.81055,0,104.41309,13.62793,136.80859,40.86719,32.39551,27.24805,48.42188,67.61816,48.09473,121.10938,0,36.55371-7.3125,67.20508-21.92969,91.95312-14.62402,24.75586-35.71973,43.44531-63.29492,56.06836-27.58301,12.63086-60.80371,18.93945-99.67871,18.93945ZM1607.90291,2111.1324c15.27832,0,28.4082-2.24316,39.37207-6.72852,10.96484-4.48535,19.2666-11.54102,24.91992-21.18164,5.64551-9.63281,8.47266-22.09277,8.47266-37.37891,0-14.95215-2.99023-26.91309-8.9707-35.88477-5.98145-8.9707-14.37598-15.52734-25.16895-19.68555-10.80078-4.15137-23.50977-6.23047-38.12695-6.23047-1.99316,0-3.73828.24902-5.2334.74805-1.49512.49805-2.82617,1.66602-3.9873,3.48828-1.16797,1.83008-1.99316,4.90625-2.49121,9.2207-.49902,4.32129-.91895,10.46582-1.24609,18.44043-.33496,7.97363-.49902,18.11328-.49902,30.40137,0,15.28711.16406,27.33398.49902,36.13379.32715,8.80664.91113,15.2002,1.74414,19.1875.8252,3.9873,2.15723,6.56445,3.9873,7.72559,1.82227,1.16797,4.06445,1.74414,6.72852,1.74414Z"/>
    <path d="M1954.03865,2213.30232c-15.62109,0-28.33008-1.74414-38.12695-5.2334-9.80469-3.48828-17.03125-7.97363-21.67969-13.45605-4.65723-5.48242-8.30957-11.54102-10.96484-18.19141-2.99023-10.62988-5.48242-23.25293-7.47559-37.87793-1.99414-14.61719-3.41113-29.56836-4.23633-44.85547-.83398-15.27832-1.24609-29.2334-1.24609-41.86426,0-16.61035.49805-35.21484,1.49512-55.81934.99707-20.59766,3.81543-41.86523,8.47266-63.79395,3.31738-15.61426,9.54688-27.07715,18.68945-34.38965,9.13477-7.30371,21.67969-10.96387,37.62891-10.96387,18.26855,0,30.56445,5.90234,36.88086,17.69238,6.30762,11.79785,9.46875,29.6543,9.46875,53.57715,0,4.9834-.08496,11.2998-.24902,18.93848-.1709,7.64746-.24902,15.69922-.24902,24.17188s-.17188,17.03125-.49805,25.66699c-.33496,8.64453-.58496,16.78223-.74805,24.42188-.1709,7.64648-.33496,14.53906-.49805,20.68262-.17188,6.15234-.25,11.05078-.25,14.70312,0,8.30859,1.41016,13.87695,4.23633,16.69531,2.81934,2.82715,7.22754,4.23633,13.20801,4.23633h23.92285c5.64551,0,11.29102.99707,16.94531,2.99023,5.64551,1.99414,10.46582,6.15234,14.45312,12.45996,3.9873,6.31543,5.98047,15.78516,5.98047,28.4082,0,15.94824-3.48828,28.4082-10.46582,37.37988-6.97754,8.9707-18.19141,15.28613-33.6416,18.93848s-35.80664,5.48242-61.05273,5.48242Z"/>
    <path d="M2259.80623,2213.30232c-22.59961,0-40.79004-.99707-54.57422-2.99023-13.79102-1.99414-24.17188-5.14746-31.14941-9.46973-6.97754-4.31445-12.2959-9.79688-15.94824-16.44727-2.66309-5.64551-5.06934-14.95117-7.22656-27.90918-2.16504-12.95801-3.66016-28.65723-4.48535-47.09766-.83398-18.44043-1.24609-38.78906-1.24609-61.05273,0-22.5918.49805-42.8623,1.49512-60.80371.99707-17.94238,2.56934-33.2207,4.73438-45.85254,2.15723-12.62305,4.56348-21.75781,7.22656-27.41113,3.65234-6.97754,9.04883-12.53711,16.19824-16.69629,7.14062-4.15039,17.35742-7.05469,30.65039-8.72168,13.28516-1.6582,30.72949-2.49219,52.33105-2.49219,27.5752,0,49.50391,1.16797,65.78809,3.48926,16.27539,2.32812,27.90918,6.81348,34.88672,13.45605,6.97754,6.65039,10.4668,16.12012,10.4668,28.4082,0,12.63184-3.3252,22.26465-9.96777,28.90723-6.65039,6.65039-17.61523,9.96777-32.89453,9.96777-7.64648,0-15.12305-.07812-22.42676-.24902-7.3125-.16406-14.625-.41309-21.92969-.74805-7.3125-.32715-14.625-.49805-21.92871-.49805-4.65723,0-7.97461.83301-9.96777,2.49121-1.99414,1.66699-3.16211,4.98438-3.48926,9.96777,0,3.66016-.08594,7.22754-.24902,10.71582-.1709,3.48828-.24902,6.89941-.24902,10.2168,0,4.32227.99707,7.22656,2.99023,8.72168s5.48242,2.24316,10.46582,2.24316c8.30176,0,15.52832-.07812,21.68066-.24902,6.14355-.16406,12.28809-.32715,18.44043-.49902,6.14355-.16309,12.87207-.24902,20.18457-.24902,14.61621,0,24.91895,2.66309,30.90039,7.97461,5.98047,5.31836,8.9707,13.62793,8.9707,24.91895,0,11.2998-2.99023,19.60938-8.9707,24.91992-5.98145,5.31836-15.4502,7.97461-28.4082,7.97461-9.30664,0-19.60938-.07812-30.90039-.25-11.2998-.16309-22.92578-.24902-34.8877-.24902-6.65039,0-9.96777,2.66309-9.96777,7.97461,0,3.9873-.08594,7.89648-.24902,11.71191-.1709,3.82324-.1709,7.3125,0,10.4668.16309,3.16113.32715,5.90234.49805,8.22266.16406,2.3291.25,3.82422.25,4.48535.32617,3.3252,1.32324,5.90332,2.99023,7.72559,1.6582,1.83008,4.48535,2.74121,8.47266,2.74121h77.74805c9.29883,0,17.02344,2.57715,23.17578,7.72461,6.14355,5.15527,9.21973,13.70605,9.21973,25.66699,0,7.64746-1.41699,14.4541-4.23633,20.43457-2.82617,5.98047-7.97363,11.0498-15.4502,15.20117-7.47559,4.1582-18.44043,7.39746-32.89355,9.71777-14.45312,2.32129-33.14258,3.48926-56.06836,3.48926Z"/>
    <path d="M408.08358,2681.59041c-13.0498,0-23.78223-3.68945-32.19629-11.04785-8.42383-7.3584-14.73633-18.62305-18.93848-33.77441-5.05078-17.25195-8.31543-39.34766-9.78516-66.28613-1.47949-26.92871-2.20996-59.12402-2.20996-96.58789,0-34.50391.94727-65.02344,2.84082-91.53711,1.89453-26.51465,5.57324-48.18555,11.04785-65.02344,6.31348-16.82812,16.30566-29.04004,29.98633-36.61523,13.67188-7.5752,31.66406-11.36328,53.97559-11.36328,11.36328,0,21.9873,1.37109,31.88086,4.10352,9.88379,2.74219,19.03711,8.52246,27.46094,17.36035,8.41406,8.83789,16.19727,21.36523,23.3584,37.5625,7.15137,16.20605,14.0957,37.77832,20.83203,64.70703,5.05078,20.62598,9.1543,37.03906,12.31055,49.24121,3.15625,12.21191,5.78027,21.36523,7.8916,27.46094,2.10059,6.10645,3.99414,10.10059,5.68164,11.99512,1.67676,1.89355,3.36328,2.84082,5.0498,2.84082,2.93945,0,4.94238-1.2627,5.99707-3.78809,1.0459-2.52539,1.5791-5.88867,1.5791-10.10059,0-9.67676-.10938-19.14551-.31641-28.4082-.2168-9.25195-.42383-19.03711-.63086-29.35547-.2168-10.30762-.42383-21.46387-.63184-33.45801-.2168-11.99512-.31543-25.35059-.31543-40.08789,0-24.40332,4.41895-42.0791,13.25781-53.02832,8.83789-10.93945,19.56934-16.41309,32.19531-16.41309,11.36328,0,21.14844,2.63281,29.35547,7.89062,8.20703,5.26758,14.41113,15.89062,18.62305,31.88086,3.36328,15.5752,5.99707,36.40723,7.8916,62.49805,1.89355,26.09961,2.84082,59.97266,2.84082,101.6377,0,37.46387-1.05566,70.18262-3.15723,98.16602-2.11035,27.99414-5.68164,49.77441-10.73145,65.33984-5.05078,15.99902-13.88867,27.46094-26.51465,34.40527s-29.03906,10.41602-49.24121,10.41602c-10.52441,0-20.20117-1.37109-29.03906-4.10352s-16.83789-7.5752-23.98926-14.51953c-7.16113-6.94434-13.99707-16.30469-20.5166-28.09277-6.53027-11.77734-12.73438-26.51465-18.62402-44.19043-5.89844-17.67578-11.99414-38.92285-18.30664-63.76074-4.21191-16.82812-7.57617-30.50879-10.10156-41.03418-2.52441-10.51465-4.63574-18.40625-6.3125-23.67383-1.68652-5.25684-3.15625-8.83789-4.41895-10.73145s-2.94922-2.84082-5.05078-2.84082c-2.11035,0-3.89551,1.16406-5.36523,3.47168-1.48047,2.31836-2.20996,6.62891-2.20996,12.94141,0,12.21191.20703,26.30762.63086,42.29688.41504,16,.73047,32.51172.94727,49.55664.20703,17.04492.31543,34.19824.31543,51.4502,0,25.67676-4.10352,44.19141-12.30957,55.55469-8.20703,11.36328-19.88574,17.04492-35.03711,17.04492Z"/>
    <path d="M1031.35897,2684.11482c-35.77637,0-68.39648-8.52246-97.85059-25.56738-29.46289-17.04492-52.82129-41.44824-70.07324-73.22949-17.26172-31.77246-25.88281-69.54102-25.88281-113.31738,0-43.7666,8.62109-80.80566,25.88281-111.10742,17.25195-30.30273,40.50195-53.44336,69.75781-69.44238,29.24707-15.99023,61.96582-23.98926,98.16602-23.98926,36.19141,0,69.12695,7.89062,98.79785,23.67285,29.6709,15.7832,53.34473,38.8252,71.02051,69.12695,17.67676,30.30273,26.51465,67.3418,26.51465,111.10742,0,43.77637-8.83789,81.5459-26.51465,113.31738-17.67578,31.78223-41.34961,56.29395-71.02051,73.5459-29.6709,17.26172-62.60645,25.88281-98.79785,25.88281ZM1031.9908,2550.28084c13.46387,0,25.25195-3.25488,35.35254-9.78516,10.10059-6.51953,17.88281-15.88086,23.35742-28.09277,5.46484-12.20117,8.20703-26.08984,8.20703-41.66504,0-16.41406-2.94922-30.30176-8.83789-41.66504-5.89844-11.36328-13.88867-19.98438-23.98926-25.88379-10.10059-5.88867-21.68066-8.83789-34.72168-8.83789-12.625,0-23.78125,3.05762-33.45801,9.1543-9.68652,6.10547-17.36035,14.73633-23.04199,25.88281-5.68164,11.15625-8.52246,24.93555-8.52246,41.34961,0,15.5752,2.73145,29.35547,8.20605,41.34961,5.46484,11.99512,13.04004,21.36523,22.72656,28.09277,9.67676,6.7373,21.24707,10.10059,34.72168,10.10059Z"/>
    <path d="M1450.10506,2681.59041c-26.51465,0-45.03906-10.10059-55.55371-30.30273-3.78809-7.5752-6.8457-18.72168-9.1543-33.45801-2.31836-14.72754-4.00488-33.87305-5.0498-57.44824-1.05566-23.56445-1.5791-52.39746-1.5791-86.4873,0-33.66504.52344-61.75781,1.5791-84.27734,1.04492-22.50977,2.73145-40.81738,5.0498-54.92285,2.30859-14.0957,5.57324-25.14355,9.78516-33.14258,10.10059-21.04004,28.4082-31.56445,54.92285-31.56445,26.08984,0,44.39746,10.52441,54.92188,31.56445,3.78809,7.99902,6.94434,18.93848,9.46973,32.82715s4.20215,32.19629,5.05078,54.92285c.83789,22.72656,1.2627,50.92773,1.2627,84.59277,0,35.35254-.4248,64.60938-1.2627,87.75-.84863,23.15039-2.52539,41.77441-5.05078,55.86914-2.52539,14.10645-5.68164,25.36035-9.46973,33.77441-10.52441,20.20215-28.83203,30.30273-54.92188,30.30273Z"/>
    <path d="M1743.8492,2683.48397c-26.93945,0-46.30176-5.05078-58.0791-15.15137-11.78809-10.10059-17.67676-23.77148-17.67676-41.03418,0-11.77734,2.41699-20.93066,7.25977-27.46094,4.83398-6.52051,11.25488-11.46191,19.25488-14.83496,7.98926-3.36426,16.19629-5.68164,24.62012-6.94434,21.46387-2.52539,38.50879-6.72754,51.13477-12.62598,12.62598-5.88867,18.93945-14.0957,18.93945-24.62109,0-6.72656-2.63379-12.72363-7.8916-17.99121-5.26758-5.25781-12.10352-10.41699-20.5166-15.4668-8.42383-5.05078-17.46973-10.73242-27.14648-17.04492-9.68555-6.31348-18.62305-13.78027-26.83008-22.41113-8.20605-8.62109-15.15039-19.14551-20.83203-31.56445-5.68164-12.40918-8.52246-27.46191-8.52246-45.1377,0-20.20117,4.62598-37.87793,13.88867-53.02832,9.25195-15.15137,21.6709-27.98438,37.24609-38.50977,15.56543-10.51465,33.34961-18.51465,53.34375-23.98828,19.98438-5.46484,40.50195-8.20703,61.55176-8.20703,26.92871,0,46.29102,4.84277,58.0791,14.51953,11.77734,9.68652,17.67578,23.35742,17.67578,41.03418,0,10.94922-2.11035,19.78711-6.3125,26.51465-4.21191,6.73633-9.68652,11.78711-16.41406,15.15039-6.7373,3.37402-13.88867,5.47461-21.46387,6.31348-18.52441,1.68652-32.51172,5.0498-41.98145,10.10059-9.46875,5.0498-14.2041,12.21191-14.2041,21.46387,0,6.3125,2.73242,11.89551,8.20703,16.72949,5.46484,4.84277,12.62598,9.57812,21.46387,14.2041,8.83887,4.63574,18.09082,9.89355,27.77734,15.78223,9.67676,5.89844,18.83008,13.1582,27.46094,21.7793,8.62109,8.63086,15.67383,19.15625,21.14844,31.56543,5.46484,12.41797,8.20703,27.67773,8.20703,45.76855,0,22.3125-5.26758,41.98047-15.78223,59.02539-10.52539,17.04492-24.83789,31.15039-42.92773,42.29688-18.10059,11.15625-38.41113,19.57031-60.91992,25.25195-22.51953,5.68164-45.76953,8.52246-69.75781,8.52246Z"/>
    <path d="M2229.50448,2682.85311c-28.625,0-51.66797-1.2627-69.12695-3.78809-17.46875-2.52539-30.61816-6.52051-39.45605-11.99512-8.83789-5.46387-15.5752-12.4082-20.20117-20.83203-3.37305-7.15137-6.42188-18.93945-9.15332-35.35254-2.74219-16.41406-4.63672-36.2998-5.68164-59.65723-1.05566-23.3584-1.5791-49.13281-1.5791-77.33398,0-28.61523.63184-54.29102,1.89453-77.01758s3.25488-42.08008,5.99707-58.0791c2.73242-15.98926,5.78027-27.55957,9.15332-34.7207,4.62695-8.83887,11.46191-15.88184,20.51758-21.14844,9.04492-5.25781,21.98633-8.9375,38.82422-11.04785,16.82812-2.10156,38.92383-3.15625,66.28613-3.15625,34.92871,0,62.70508,1.47949,83.33105,4.41895,20.61523,2.94922,35.35254,8.63086,44.19043,17.04492,8.83789,8.42383,13.25684,20.41797,13.25684,35.9834,0,15.99902-4.21191,28.20117-12.62598,36.61523-8.42383,8.42383-22.31152,12.62598-41.66504,12.62598-9.68652,0-19.15625-.09863-28.4082-.31543-9.2627-.20703-18.52441-.52344-27.77734-.94727-9.26172-.41406-18.52441-.63086-27.77637-.63086-5.89844,0-10.10059,1.05469-12.62598,3.15625-2.52539,2.11035-4.00488,6.3125-4.41895,12.62598,0,4.63574-.1084,9.15332-.31543,13.57227-.21777,4.41895-.31641,8.73926-.31641,12.94141,0,5.47461,1.2627,9.1543,3.78809,11.04785s6.94434,2.84082,13.25684,2.84082c10.51562,0,19.66895-.09863,27.46191-.31543,7.78223-.20703,15.56543-.41406,23.35742-.63184,7.7832-.20703,16.30566-.31543,25.56738-.31543,18.51465,0,31.56445,3.37402,39.14062,10.10059,7.5752,6.7373,11.36328,17.2627,11.36328,31.56543,0,14.3125-3.78809,24.83691-11.36328,31.56445-7.57617,6.7373-19.57031,10.10059-35.98438,10.10059-11.78711,0-24.83691-.09863-39.13965-.31543-14.3125-.20703-29.04004-.31543-44.19043-.31543-8.42383,0-12.62598,3.37305-12.62598,10.10059,0,5.0498-.1084,10.00195-.31543,14.83496-.21777,4.84375-.21777,9.2627,0,13.25684.20703,4.00488.41406,7.47754.63086,10.41699.20703,2.94922.31543,4.84277.31543,5.68164.41406,4.21191,1.67676,7.47656,3.78809,9.78516,2.10059,2.31738,5.68164,3.47168,10.73145,3.47168h98.48242c11.77734,0,21.5625,3.26465,29.35547,9.78516,7.78223,6.53027,11.67871,17.36035,11.67871,32.51172,0,9.68652-1.79492,18.30762-5.36621,25.88281-3.58105,7.57617-10.10059,13.99707-19.57031,19.25488-9.46875,5.26758-23.35742,9.37012-41.66504,12.30957s-41.98145,4.41992-71.02051,4.41992Z"/>
  </g>
  <path d="M1897.5598,1898.99407s17.53202-15.51725,23.42701-45.70543l39.14567,7.30996s-2.83658,19.48493,12.61813,42.5088l-75.19081-4.11333Z"/>
  <path class="cls-1" d="M127.35641,1384.2307s-109.605,30.18887-107.38762,51.58592c2.21738,21.39706,238.35181,294.40744,276.84062,283.20989,38.48881-11.19755,81.79444-149.10264,81.79444-149.10264-130.3164-117.22094-586.31073-498.88168,135.96992-1138.19509,0,0,36.23359,7.02372,67.30405,16.84585"/>
  <path class="cls-1" d="M518.73215,514.53614s115.13767,445.83648,677.99276,679.47013"/>
  <path class="cls-1" d="M326.88731,731.82634s105.16987,432.54608,668.02496,666.17973"/>
  <path class="cls-1" d="M281.81324,832.11809s101.96452,392.97227,633.64754,612.64138"/>
  <path class="cls-1" d="M444.8473,1597.742s321.54432,228.38905,853.29074-414.2452l-23.00477-48.07865"/>
  <g>
    <path class="cls-1" d="M871.03322,343.2997c-29.79899-42.86275-77.73808-60.2512-123.24574-32.51602-69.61978,42.43062-229.07581,348.85718,10.07385,368.60254,240.26006,19.83704,138.95452-299.00093,113.17189-336.08652Z"/>
    <circle class="cls-1" cx="773.68308" cy="525.38282" r="76.70993"/>
  </g>
  <path class="cls-1" d="M941.98945,727.37718c9.77284,7.75094,78.50685,35.44078,126.08686,282.8568"/>
  <path class="cls-1" d="M1701.98592,548.88894s8.64594-36.01153,44.53698-41.83294c56.34281-9.13862,162.31253,130.76404,101.23325,361.74958-39.16438,148.10922,63.18827,140.31502,64.47257,304.30648.66254,84.59907-51.07042,155.04241-46.9375,271.6474,4.36723,123.21556,131.91122,192.40689,59.35565,495.2369"/>
  <path class="cls-1" d="M1467.87506,585.64815c5.6998-16.68369,16.91545-31.10456,36.87569-32.94322,85.1858-7.84699,65.20538,195.6153,159.76756,179.06692,31.10519-5.44341,35.42257-37.23051,35.3608-71.79859"/>
  <path class="cls-1" d="M1028.29107,655.06928c62.76065,12.44208,130.69319,89.5517,193.40245,246.57932,40.21015,103.09191,150.70183,96.31106,186.91391,22.4303,34.21571-69.8077,47.43541-149.53742,50.82871-227.58317"/>
  <path class="cls-1" d="M834.49317,770.02872s48.62861,32.18597,57.24542,154.05018"/>
  <line class="cls-1" x1="2471.85004" y1="19.9356" x2="1384.65652" y2="537.90883"/>
  <line class="cls-1" x1="1515.34102" y1="631.46227" x2="1401.51279" y2="648.61305"/>
  <line class="cls-1" x1="1777.52833" y1="595.64458" x2="1625.97199" y2="616.21614"/>
  <line class="cls-1" x1="2619.48671" y1="459.58005" x2="1896.05782" y2="575.20631"/>
  <polyline class="cls-1" points="2474.80849 558.99666 2474.80849 2785.22685 221.66169 2785.22685 221.66169 1777.84288"/>
  <polyline class="cls-1" points="2307.23823 180.79811 2474.80849 186.44132 2474.80849 413.22643"/>
  <path class="cls-1" d="M221.66169,626.50906V186.44132l164.24766-5.64321C929.75971,30.09259,1528.80931,12.87181,2079.89839,122.49057"/>
</svg>